<?xml version="1.0" encoding="utf-8"?>
<svg version="1.1" id="Layer_1" xmlns="http://www.w3.org/2000/svg"
	xmlns:xlink="http://www.w3.org/1999/xlink" x="0px" y="0px"
	viewBox="0 0 379 186" style="enable-background:new 0 0 379 186;" xml:space="preserve">
<style type="text/css">
	.st0{enable-background:new    ;}
	.st1{fill:#FFFFFF;}
	.st2{fill-rule:evenodd;clip-rule:evenodd;fill:#FFFFFF;}
	.st3{filter:url(#Adobe_OpacityMaskFilter);}
	.st4{mask:url(#mask-2_1_);fill-rule:evenodd;clip-rule:evenodd;fill:#FFFFFF;}
</style>
<title>dataset_sitetitle</title>
<desc>Created with Sketch.</desc>
<g id="Open-Desktop">
	<g transform="translate(-150.000000, -227.000000)">
		<g id="dataset_sitetitle" transform="translate(145.000000, 205.000000)">
			<g class="st0">
				<path class="st1" d="M5.9,93.5c0-34,23-62.4,61.5-62.4c38.6,0,61.5,28.4,61.5,62.4c0,34-22.9,62.4-61.5,62.4
					C28.9,155.9,5.9,127.5,5.9,93.5z M108.5,93.5c0.2-24.7-14.6-44.9-41-44.9s-41.1,20.2-41,44.9c-0.2,24.6,14.6,44.9,41,44.9
					S108.6,118.2,108.5,93.5z"/>
			</g>
			<g class="st0">
				<path class="st1" d="M219.7,113.4c0,24.5-16,41.6-38.9,41.6c-10.5,0-20.6-5.1-25.3-12.8v46.4h-18.5V73.8h18.5v10.7
					c4.8-7.7,15.3-12.8,26.5-12.8C204.5,71.7,219.7,88.4,219.7,113.4z M201.1,113.4c0-14.8-9.5-25.2-23.1-25.2
					c-13.9,0-23.5,10.2-23.5,25.2s9.5,25.2,23.5,25.2C191.6,138.5,201.1,128.2,201.1,113.4z"/>
			</g>
			<g class="st0">
				<path class="st1" d="M301.7,119.5h-58.8c0.5,12.6,8.7,19.4,22.1,19.4c9.2,0,14.6-2.9,17.7-9h18.7C299,144.7,284.1,155,265,155
					c-25,0-40.5-16-40.5-41.6c0-25.3,15.6-41.6,39.8-41.6c22.6,0,37.9,15.3,37.9,37.6C302.3,112.9,302.1,114.8,301.7,119.5z
					 M284.1,105.4c-0.2-12.2-7.3-19-20.1-19c-13.1,0-20.9,7.8-21.1,19H284.1z"/>
			</g>
			<g class="st0">
				<path class="st1" d="M310.1,73.8h18.5v11c4.9-8.5,14.1-13.1,25.8-13.1c19,0,28.9,10.7,28.9,31.4V153h-18.5v-41.3
					c0-16.8-4.4-24.1-17.3-24.1c-12.1,0-18.9,8-18.9,21.9V153h-18.5V73.8z"/>
			</g>
			<g class="st0">
				<path class="st1" d="M242.7,175.5h10.7c10.4,0,15.9,7.6,15.9,15.8c0,8.2-5.4,15.7-15.9,15.7h-10.7V175.5z M252.9,202.4
					c7.7,0,11-5.5,11-11.1c0-5.6-3.3-11.1-11-11.1h-5v22.2H252.9z"/>
				<path class="st1" d="M269.5,196.5c0-6.2,3.9-11,10.4-11c2.8,0,5.3,1.3,6.6,3.4V186h4.9v21h-4.9v-2.8c-1.3,2.1-4.1,3.4-6.7,3.4
					C273.1,207.5,269.5,202.7,269.5,196.5z M286.8,196.5c0-3.6-2-6.7-6.2-6.7c-3.8,0-6.1,2.8-6.1,6.7c0,3.8,2.3,6.7,6.1,6.7
					C284.7,203.2,286.8,200.1,286.8,196.5z"/>
				<path class="st1" d="M307.1,202.7v4.3c-0.8,0.1-2.2,0.3-3.6,0.3c-2.4,0-6.8-0.3-6.8-7.4v-9.8h-3.6V186h3.6v-6.3h4.9v6.3h4.8v4.1
					h-4.8v8.6c0,3.6,1.1,4.1,3.1,4.1C305.4,202.9,306.6,202.8,307.1,202.7z"/>
				<path class="st1" d="M307.2,196.5c0-6.2,3.9-11,10.4-11c2.8,0,5.3,1.3,6.6,3.4V186h4.9v21h-4.9v-2.8c-1.3,2.1-4.1,3.4-6.7,3.4
					C310.8,207.5,307.2,202.7,307.2,196.5z M324.4,196.5c0-3.6-2-6.7-6.2-6.7c-3.8,0-6.1,2.8-6.1,6.7c0,3.8,2.3,6.7,6.1,6.7
					C322.4,203.2,324.4,200.1,324.4,196.5z"/>
				<path class="st1" d="M331.2,200.6h4.9c0,1.8,1.8,3.1,4.3,3.1c1.8,0,3-1,3-2.5c0-0.9-0.4-1.9-1.6-2.2l-5.4-1.5
					c-3.1-0.9-4.5-3-4.5-5.8c0-3.4,3.2-6.2,8.1-6.2c5.5,0,8.3,2.8,8.3,6.5h-4.8c0-1.8-1.4-2.8-3.6-2.8c-1.7,0-3,0.9-3,2.2
					c0,1.2,0.7,1.9,1.8,2.2l5,1.4c2.8,0.8,4.9,2.9,4.9,5.6c0,4-2.9,6.8-8.3,6.8C334.7,207.5,331.2,204.4,331.2,200.6z"/>
				<path class="st1" d="M369.6,198.1H354c0.1,3.3,2.3,5.1,5.8,5.1c2.4,0,3.9-0.8,4.7-2.4h4.9c-0.6,3.9-4.6,6.7-9.6,6.7
					c-6.6,0-10.7-4.2-10.7-11c0-6.7,4.1-11,10.5-11c6,0,10,4,10,9.9C369.7,196.4,369.7,196.9,369.6,198.1z M364.9,194.4
					c0-3.2-1.9-5-5.3-5c-3.5,0-5.5,2.1-5.6,5H364.9z"/>
			</g>
			<g class="st0">
				<path class="st1" d="M383.6,202.7v4.3c-0.8,0.1-2.2,0.3-3.6,0.3c-2.4,0-6.8-0.3-6.8-7.4v-9.8h-3.6V186h3.6v-6.3h4.9v6.3h4.8v4.1
					h-4.8v8.6c0,3.6,1.1,4.1,3.1,4.1C381.9,202.9,383.2,202.8,383.6,202.7z"/>
			</g>
			<g id="dataset_logotype" transform="translate(224.000000, 22.000000)">
				<g>
					<polygon id="Fill-1" class="st2" points="27,1.1 22.6,15.3 18.1,1.1 14.2,1.1 9.8,15.3 5.4,1.1 0,1.1 7.7,22.9 11.9,22.9 
						16.2,9.2 20.5,22.9 24.6,22.9 32.3,1.1 					"/>
					<path id="Fill-2" class="st2" d="M50.9,7.3l-2.7,8.9h5.3L50.9,7.3z M55.6,22.9l-0.8-2.6H47l-0.9,2.6h-5.3l7.8-21.8h4.7
						l7.9,21.8H55.6z"/>
					<polygon id="Fill-3" class="st2" points="90.2,1.1 84.4,1.1 79.7,9.7 75.1,1.1 69.1,1.1 77.1,15.1 77.1,22.9 82.3,22.9 
						82.3,15.1 					"/>
					<polygon id="Fill-4" class="st2" points="124.5,22.8 119.6,22.8 119.6,9.3 114.9,22.8 111.2,22.8 106.3,9.3 106.3,22.8 
						101.4,22.8 101.4,1 107.2,1 113.1,16.2 118.8,1 124.5,1 					"/>
					<g id="Group-7" transform="translate(136.500000, 0.400000)">
						<g id="Clip-6">
						</g>
						<defs>
							<filter id="Adobe_OpacityMaskFilter" filterUnits="userSpaceOnUse" x="0.2" y="0.1" width="23" height="22.9">
								<feColorMatrix  type="matrix" values="1 0 0 0 0  0 1 0 0 0  0 0 1 0 0  0 0 0 1 0"/>
							</filter>
						</defs>
						<mask maskUnits="userSpaceOnUse" x="0.2" y="0.1" width="23" height="22.9" id="mask-2_1_">
							<g class="st3">
								<polygon id="path-1_1_" class="st2" points="0.2,0.1 23.2,0.1 23.2,23 0.2,23 								"/>
							</g>
						</mask>
						<path id="Fill-5" class="st4" d="M18.1,11.6c0-3.6-2.4-6.9-6.4-6.9S5.3,8,5.3,11.6s2.4,6.9,6.4,6.9S18.1,15.1,18.1,11.6
							 M0.2,11.6c0-6,4.3-11.4,11.6-11.4s11.5,5.5,11.5,11.4S18.9,23,11.7,23S0.2,17.5,0.2,11.6"/>
					</g>
				</g>
			</g>
		</g>
	</g>
</g>
</svg>
